<svg width="32" height="32" viewBox="0 0 32 32" fill="none" xmlns="http://www.w3.org/2000/svg">
<path fill-rule="evenodd" clip-rule="evenodd" d="M22.6667 7.99992C22.6667 9.76803 21.9643 11.4637 20.714 12.714C19.4638 13.9642 17.7681 14.6666 16 14.6666C14.2319 14.6666 12.5362 13.9642 11.286 12.714C10.0357 11.4637 9.33333 9.76803 9.33333 7.99992C9.33333 6.23181 10.0357 4.53612 11.286 3.28587C12.5362 2.03563 14.2319 1.33325 16 1.33325C17.7681 1.33325 19.4638 2.03563 20.714 3.28587C21.9643 4.53612 22.6667 6.23181 22.6667 7.99992ZM13.3333 17.3333C10.858 17.3333 8.48401 18.3166 6.73367 20.0669C4.98333 21.8173 4 24.1912 4 26.6666C4 27.7275 4.42143 28.7449 5.17157 29.495C5.92172 30.2452 6.93913 30.6666 8 30.6666H17.88C18.4547 30.6666 18.7827 29.9626 18.484 29.4693C17.729 28.2219 17.331 26.7913 17.3333 25.3333C17.3323 24.0464 17.6421 22.7783 18.2364 21.6369C18.8307 20.4954 19.6919 19.5144 20.7467 18.7773C21.232 18.4373 21.1907 17.6586 20.612 17.5373C19.9853 17.4039 19.3333 17.3333 18.6667 17.3333H13.3333ZM25.3333 19.9999C25.687 19.9999 26.0261 20.1404 26.2761 20.3904C26.5262 20.6405 26.6667 20.9796 26.6667 21.3333V23.9999H29.3333C29.687 23.9999 30.0261 24.1404 30.2761 24.3904C30.5262 24.6405 30.6667 24.9796 30.6667 25.3333C30.6667 25.6869 30.5262 26.026 30.2761 26.2761C30.0261 26.5261 29.687 26.6666 29.3333 26.6666H26.6667V29.3333C26.6667 29.6869 26.5262 30.026 26.2761 30.2761C26.0261 30.5261 25.687 30.6666 25.3333 30.6666C24.9797 30.6666 24.6406 30.5261 24.3905 30.2761C24.1405 30.026 24 29.6869 24 29.3333V26.6666H21.3333C20.9797 26.6666 20.6406 26.5261 20.3905 26.2761C20.1405 26.026 20 25.6869 20 25.3333C20 24.9796 20.1405 24.6405 20.3905 24.3904C20.6406 24.1404 20.9797 23.9999 21.3333 23.9999H24V21.3333C24 20.9796 24.1405 20.6405 24.3905 20.3904C24.6406 20.1404 24.9797 19.9999 25.3333 19.9999Z" fill="#4DB6AC"/>
</svg>
