<svg width="32" height="32" viewBox="0 0 32 32" fill="none" xmlns="http://www.w3.org/2000/svg">
<path d="M28.1598 19.3921V25.6001C28.1578 26.2784 27.8875 26.9284 27.4078 27.408C26.9281 27.8877 26.2782 28.1581 25.5998 28.1601H19.3918C18.7135 28.1581 18.0635 27.8877 17.5839 27.408C17.1042 26.9284 16.8339 26.2784 16.8318 25.6001V19.3921C16.8339 18.7138 17.1042 18.0638 17.5839 17.5841C18.0635 17.1045 18.7135 16.8341 19.3918 16.8321H25.5998C26.2782 16.8341 26.9281 17.1045 27.4078 17.5841C27.8875 18.0638 28.1578 18.7138 28.1598 19.3921ZM12.6078 3.84009H6.39984C5.72151 3.84211 5.07154 4.11248 4.59189 4.59213C4.11223 5.07179 3.84187 5.72176 3.83984 6.40009V12.6081C3.84187 13.2864 4.11223 13.9364 4.59189 14.416C5.07154 14.8957 5.72151 15.1661 6.39984 15.1681H12.6078C13.2862 15.1661 13.9361 14.8957 14.4158 14.416C14.8955 13.9364 15.1658 13.2864 15.1678 12.6081V6.40009C15.1658 5.72176 14.8955 5.07179 14.4158 4.59213C13.9361 4.11248 13.2862 3.84211 12.6078 3.84009ZM12.6078 16.8321H6.39984C5.72151 16.8341 5.07154 17.1045 4.59189 17.5841C4.11223 18.0638 3.84187 18.7138 3.83984 19.3921V25.6001C3.84187 26.2784 4.11223 26.9284 4.59189 27.408C5.07154 27.8877 5.72151 28.1581 6.39984 28.1601H12.6078C13.2862 28.1581 13.9361 27.8877 14.4158 27.408C14.8955 26.9284 15.1658 26.2784 15.1678 25.6001V19.3921C15.1658 18.7138 14.8955 18.0638 14.4158 17.5841C13.9361 17.1045 13.2862 16.8341 12.6078 16.8321ZM17.8558 9.94569V9.04969C17.5657 8.82953 17.311 8.56621 17.1006 8.26889C17.0306 8.16824 16.991 8.04958 16.9864 7.92704C16.9819 7.80451 17.0126 7.68325 17.075 7.57769L18.1118 5.77289C18.1727 5.66621 18.2631 5.57932 18.372 5.52258C18.481 5.46583 18.6039 5.44164 18.7262 5.45289C19.0911 5.48519 19.4491 5.57147 19.7886 5.70889L20.5694 5.26089C20.6139 4.8966 20.7176 4.54204 20.8766 4.21129C20.9267 4.10051 21.0077 4.00655 21.1099 3.94069C21.2121 3.87484 21.3311 3.83991 21.4526 3.84009H23.539C23.6606 3.83991 23.7796 3.87484 23.8818 3.94069C23.984 4.00655 24.065 4.10051 24.115 4.21129C24.2801 4.53971 24.3841 4.89533 24.4222 5.26089L25.203 5.70889C25.5426 5.57147 25.9006 5.48519 26.2654 5.45289C26.3878 5.44164 26.5107 5.46583 26.6197 5.52258C26.7286 5.57932 26.8189 5.66621 26.8798 5.77289L27.9166 7.57769C27.979 7.68325 28.0098 7.80451 28.0053 7.92704C28.0007 8.04958 27.9611 8.16824 27.891 8.26889C27.6807 8.56621 27.426 8.82953 27.1358 9.04969V9.94569C27.4242 10.1728 27.6785 10.44 27.891 10.7393C27.9611 10.8399 28.0007 10.9586 28.0053 11.0811C28.0098 11.2037 27.979 11.3249 27.9166 11.4305L26.8798 13.2353C26.8189 13.342 26.7286 13.4289 26.6197 13.4856C26.5107 13.5423 26.3878 13.5665 26.2654 13.5553C25.9006 13.523 25.5426 13.4367 25.203 13.2993L24.4222 13.7473C24.382 14.1124 24.2781 14.4677 24.115 14.7969C24.065 14.9077 23.984 15.0016 23.8818 15.0675C23.7796 15.1333 23.6606 15.1683 23.539 15.1681H21.4526C21.3311 15.1683 21.2121 15.1333 21.1099 15.0675C21.0077 15.0016 20.9267 14.9077 20.8766 14.7969C20.7196 14.4654 20.616 14.1111 20.5694 13.7473L19.7886 13.2993C19.4491 13.4367 19.0911 13.523 18.7262 13.5553C18.6039 13.5665 18.481 13.5423 18.372 13.4856C18.2631 13.4289 18.1727 13.342 18.1118 13.2353L17.075 11.4305C17.0126 11.3249 16.9819 11.2037 16.9864 11.0811C16.991 10.9586 17.0306 10.8399 17.1006 10.7393C17.3132 10.44 17.5675 10.1728 17.8558 9.94569ZM21.2222 9.49769C21.2222 9.83717 21.3571 10.1627 21.5971 10.4028C21.8372 10.6428 22.1628 10.7777 22.5022 10.7777C22.8417 10.7777 23.1673 10.6428 23.4073 10.4028C23.6474 10.1627 23.7822 9.83717 23.7822 9.49769C23.7822 9.15821 23.6474 8.83264 23.4073 8.59259C23.1673 8.35254 22.8417 8.21769 22.5022 8.21769C22.1628 8.21769 21.8372 8.35254 21.5971 8.59259C21.3571 8.83264 21.2222 9.15821 21.2222 9.49769Z" fill="#009688"/>
</svg>
