<svg width="28" height="28" viewBox="0 0 28 28" fill="none" xmlns="http://www.w3.org/2000/svg">
<path d="M20.7955 12.2844C21.6988 12.2844 22.5818 12.0165 23.3329 11.5147C24.0839 11.0128 24.6693 10.2995 25.0149 9.46499C25.3606 8.63045 25.451 7.71216 25.2747 6.82623C25.0985 5.94031 24.6635 5.12655 24.0247 4.48786C23.3859 3.84917 22.5721 3.41425 21.6862 3.23809C20.8002 3.06192 19.882 3.15244 19.0475 3.49818C18.213 3.84392 17.4997 4.42936 16.9979 5.18047C16.4962 5.93157 16.2284 6.8146 16.2285 7.71789C16.23 8.92864 16.7116 10.0894 17.5678 10.9455C18.424 11.8015 19.5848 12.2831 20.7955 12.2844ZM20.2955 5.05639C20.2955 4.92378 20.3482 4.79661 20.442 4.70284C20.5357 4.60907 20.6629 4.55639 20.7955 4.55639C20.9281 4.55639 21.0553 4.60907 21.1491 4.70284C21.2428 4.79661 21.2955 4.92378 21.2955 5.05639V7.47589L23.3385 9.09339C23.39 9.13417 23.4329 9.18468 23.4649 9.24206C23.4968 9.29943 23.5172 9.36253 23.5248 9.42776C23.5323 9.493 23.527 9.55908 23.509 9.62225C23.491 9.68541 23.4608 9.74441 23.42 9.79589C23.3792 9.84737 23.3287 9.89031 23.2714 9.92227C23.214 9.95423 23.1509 9.97457 23.0856 9.98214C23.0204 9.9897 22.9543 9.98435 22.8912 9.96638C22.828 9.94841 22.769 9.91817 22.7175 9.87739L20.485 8.10989C20.4259 8.06307 20.3782 8.00349 20.3454 7.9356C20.3125 7.86772 20.2955 7.79329 20.2955 7.71789V5.05639Z" fill="#009688"/>
<path d="M19.6145 18.4C17.4634 18.3979 15.3692 17.709 13.6369 16.4338C11.9045 15.1585 10.6246 13.3635 9.9835 11.3102C9.34239 9.25687 9.3736 7.05248 10.0726 5.01812C10.7715 2.98376 12.1018 1.22569 13.8695 0C11.1061 0.0257601 8.41213 0.86879 6.12699 2.42288C3.84184 3.97697 2.06776 6.17261 1.02823 8.73317C-0.0112915 11.2937 -0.269752 14.1047 0.285412 16.8119C0.840577 19.519 2.18453 22.0014 4.14796 23.9461C6.11139 25.8909 8.60646 27.211 11.3188 27.7403C14.0312 28.2695 16.8395 27.9842 19.39 26.9202C21.9405 25.8562 24.1191 24.0612 25.6513 21.7613C27.1834 19.4614 28.0007 16.7595 28 13.996V13.9315C27.0755 15.3065 25.8273 16.4332 24.365 17.2124C22.9028 17.9916 21.2714 18.3995 19.6145 18.4ZM18.8905 25.784C17.2453 26.5631 15.4489 26.9711 13.6285 26.979C12.3421 26.9817 11.0651 26.759 9.8555 26.321C7.55823 25.4688 5.58981 23.911 4.23251 21.871C4.15911 21.7605 4.1326 21.6254 4.1588 21.4954C4.18501 21.3654 4.26179 21.2511 4.37226 21.1777C4.48272 21.1044 4.61781 21.0778 4.74782 21.104C4.87783 21.1303 4.99211 21.207 5.06551 21.3175C6.30354 23.1804 8.09974 24.6035 10.1965 25.3825C12.9064 26.3058 15.8705 26.1273 18.45 24.8855C18.5694 24.8274 18.7069 24.819 18.8324 24.8623C18.9579 24.9055 19.0611 24.9969 19.1193 25.1162C19.1774 25.2356 19.1858 25.3732 19.1425 25.4987C19.0992 25.6242 19.0079 25.7274 18.8885 25.7855L18.8905 25.784Z" fill="#009688"/>
</svg>
