<svg width="24" height="24" viewBox="0 0 24 24" fill="none" xmlns="http://www.w3.org/2000/svg">
<path d="M13 12H9C8.72386 12 8.5 12.2239 8.5 12.5V22C8.5 22.2761 8.72386 22.5 9 22.5H13C13.2761 22.5 13.5 22.2761 13.5 22V12.5C13.5 12.2239 13.2761 12 13 12Z" fill="#9DB2CE"/>
<path d="M6 8H2C1.72386 8 1.5 8.22386 1.5 8.5V22C1.5 22.2761 1.72386 22.5 2 22.5H6C6.27614 22.5 6.5 22.2761 6.5 22V8.5C6.5 8.22386 6.27614 8 6 8Z" fill="#9DB2CE"/>
<path d="M20 10.5H16C15.7239 10.5 15.5 10.7239 15.5 11V22C15.5 22.2761 15.7239 22.5 16 22.5H20C20.2761 22.5 20.5 22.2761 20.5 22V11C20.5 10.7239 20.2761 10.5 20 10.5Z" fill="#9DB2CE"/>
<path d="M18 9.5C17.2089 9.5 16.4355 9.26541 15.7777 8.82588C15.1199 8.38635 14.6072 7.76164 14.3045 7.03074C14.0017 6.29983 13.9225 5.49556 14.0769 4.71964C14.2312 3.94372 14.6122 3.23098 15.1716 2.67157C15.731 2.11216 16.4437 1.7312 17.2196 1.57686C17.9956 1.42252 18.7998 1.50173 19.5307 1.80448C20.2616 2.10723 20.8864 2.61992 21.3259 3.27772C21.7654 3.93552 22 4.70888 22 5.5C21.9987 6.56046 21.5768 7.57711 20.827 8.32697C20.0771 9.07683 19.0605 9.49868 18 9.5ZM18 2.5C17.4067 2.5 16.8266 2.67595 16.3333 3.00559C15.8399 3.33524 15.4554 3.80377 15.2284 4.35195C15.0013 4.90013 14.9419 5.50333 15.0576 6.08527C15.1734 6.66722 15.4591 7.20176 15.8787 7.62132C16.2982 8.04088 16.8328 8.3266 17.4147 8.44236C17.9967 8.55811 18.5999 8.4987 19.1481 8.27164C19.6962 8.04458 20.1648 7.66006 20.4944 7.16671C20.8241 6.67337 21 6.09335 21 5.5C20.9991 4.70464 20.6827 3.94211 20.1203 3.3797C19.5579 2.8173 18.7954 2.50093 18 2.5Z" fill="#9DB2CE"/>
<path d="M21.9993 10.0002C21.9291 10.0004 21.8597 9.98572 21.7956 9.9572C21.7315 9.92868 21.6742 9.88695 21.6273 9.83474L20.2688 8.32374C20.1829 8.22473 20.1393 8.09596 20.1474 7.96514C20.1556 7.83432 20.2147 7.71192 20.3122 7.62429C20.4096 7.53665 20.5376 7.49079 20.6686 7.49658C20.7995 7.50237 20.9229 7.55935 21.0123 7.65524L22.3713 9.16574C22.436 9.2376 22.4784 9.32668 22.4935 9.42218C22.5086 9.51768 22.4957 9.61551 22.4563 9.70382C22.417 9.79213 22.3529 9.86713 22.2717 9.91974C22.1906 9.97235 22.096 10.0003 21.9993 10.0002Z" fill="#9DB2CE"/>
<path d="M4 5C4.82843 5 5.5 4.32843 5.5 3.5C5.5 2.67157 4.82843 2 4 2C3.17157 2 2.5 2.67157 2.5 3.5C2.5 4.32843 3.17157 5 4 5Z" fill="#9DB2CE"/>
<path d="M11 9.5C11.8284 9.5 12.5 8.82843 12.5 8C12.5 7.17157 11.8284 6.5 11 6.5C10.1716 6.5 9.5 7.17157 9.5 8C9.5 8.82843 10.1716 9.5 11 9.5Z" fill="#9DB2CE"/>
<path d="M18 7.25C18.9665 7.25 19.75 6.4665 19.75 5.5C19.75 4.5335 18.9665 3.75 18 3.75C17.0335 3.75 16.25 4.5335 16.25 5.5C16.25 6.4665 17.0335 7.25 18 7.25Z" fill="#9DB2CE"/>
<path d="M11.0008 8.50015C10.9049 8.50004 10.8112 8.47226 10.7308 8.42015L3.73077 3.92015C3.6718 3.88651 3.6203 3.84121 3.57941 3.78702C3.53851 3.73283 3.50908 3.67088 3.49291 3.60495C3.47674 3.53901 3.47416 3.47048 3.48534 3.40351C3.49652 3.33655 3.52122 3.27257 3.55793 3.21546C3.59464 3.15835 3.64259 3.10932 3.69887 3.07135C3.75515 3.03338 3.81857 3.00727 3.88527 2.99461C3.95197 2.98195 4.02054 2.98301 4.08682 2.99771C4.1531 3.01242 4.21569 3.04047 4.27077 3.08015L11.0643 7.44665L17.8328 5.02965C17.8952 5.00446 17.9622 4.99215 18.0295 4.99347C18.0968 4.99478 18.1632 5.00969 18.2247 5.0373C18.2861 5.0649 18.3413 5.10464 18.387 5.15412C18.4327 5.2036 18.468 5.2618 18.4906 5.32524C18.5133 5.38867 18.5229 5.45603 18.5188 5.52326C18.5148 5.5905 18.4972 5.65623 18.4672 5.71651C18.4371 5.77678 18.3952 5.83037 18.3439 5.87404C18.2926 5.91771 18.2331 5.95057 18.1688 5.97065L11.1688 8.47065C11.1149 8.49003 11.058 8.50001 11.0008 8.50015Z" fill="#9DB2CE"/>
</svg>
