<svg width="32" height="32" viewBox="0 0 32 32" fill="none" xmlns="http://www.w3.org/2000/svg">
<path d="M21.2247 28.4381C21.2247 30.3888 16.8697 31.9688 11.4984 31.9688C6.12719 31.9688 1.77219 30.3888 1.77219 28.4381C1.77219 27.0069 4.11594 25.7756 7.48781 25.2206C8.65156 26.675 9.77656 27.9969 10.7122 29.1025L11.2528 29.7437C11.3166 29.8181 11.4016 29.8569 11.4991 29.8569C11.5984 29.8569 11.6816 29.8181 11.7453 29.7437L12.2859 29.1025C13.2216 27.9969 14.3466 26.6756 15.5103 25.2206C18.8809 25.775 21.2247 27.0063 21.2247 28.4381ZM18.7372 19.0094C17.1216 18.2619 15.7553 17.0656 14.7972 15.5813C13.8491 16.1994 12.7153 16.5594 11.4984 16.5594C8.16094 16.5594 5.45531 13.8538 5.45531 10.5162C5.45531 7.17875 8.16094 4.47312 11.4984 4.47312C12.7153 4.47312 13.8497 4.83437 14.7972 5.45312C15.6282 4.16663 16.7605 3.10231 18.0959 2.3525C16.1828 0.805625 13.8403 0.03125 11.4984 0.03125C8.80719 0.03125 6.11781 1.05187 4.07531 3.09437C2.06281 5.10687 1.04219 7.75 1.01406 10.4044C0.954063 16.1038 7.81031 24.0694 11.4984 28.4381C13.5147 26.05 16.4766 22.5881 18.7372 19.0094ZM24.3022 21.1669L26.5684 20.5594L26.1984 19.1794C25.4847 19.4719 24.7247 19.6775 23.9322 19.785L24.3022 21.1669ZM22.6634 18.8406C18.0659 18.8406 14.3384 15.1131 14.3384 10.5156C14.3384 5.91813 18.0659 2.1925 22.6634 2.1925C27.2609 2.1925 30.9884 5.91813 30.9884 10.5156C30.9884 15.1131 27.2609 18.8406 22.6634 18.8406ZM27.2078 15.06C29.7166 12.5513 29.7166 8.48187 27.2078 5.97312C24.6972 3.4625 20.6297 3.4625 18.1191 5.97312C15.6103 8.48187 15.6103 12.5513 18.1191 15.06C20.6297 17.5688 24.6972 17.5688 27.2078 15.06ZM27.9553 21.78C27.8828 21.5106 27.6028 21.3475 27.3334 21.4206L24.0703 22.2956C23.8009 22.3681 23.6397 22.6462 23.7122 22.9156L25.4003 29.2175C25.7122 30.385 26.9241 31.0831 28.0897 30.7712C29.2572 30.4575 29.9553 29.2475 29.6434 28.08L27.9553 21.78ZM25.5903 10.0019H23.1791V7.58875C23.1791 7.30375 22.9484 7.07312 22.6634 7.07312C22.3784 7.07312 22.1478 7.30375 22.1478 7.58875V10.5156C22.1478 10.8006 22.3778 11.0312 22.6634 11.0312H25.5903C25.8753 11.0312 26.1059 10.8006 26.1059 10.5156C26.1059 10.2325 25.8753 10.0019 25.5903 10.0019Z" fill="#009688"/>
</svg>
