<svg width="24" height="24" viewBox="0 0 24 24" fill="none" xmlns="http://www.w3.org/2000/svg">
<g clip-path="url(#clip0_1_969)">
<path d="M21.9075 8.87987C21.4699 8.8163 21.0522 8.65482 20.6856 8.40746C20.3191 8.1601 20.013 7.83323 19.7903 7.45119C19.5675 7.06915 19.4339 6.64178 19.3992 6.20091C19.3645 5.76004 19.4297 5.31703 19.59 4.90487C19.6919 4.63541 19.7069 4.34083 19.6329 4.06241C19.559 3.784 19.3997 3.53571 19.1775 3.35237C18.1965 2.52862 17.0799 1.8815 15.8775 1.43987C15.6037 1.33816 15.3048 1.32545 15.0233 1.40355C14.7419 1.48166 14.4923 1.6466 14.31 1.87487C14.0357 2.22561 13.6852 2.50928 13.2849 2.70438C12.8847 2.89947 12.4453 3.00086 12 3.00086C11.5548 3.00086 11.1153 2.89947 10.7151 2.70438C10.3149 2.50928 9.96431 2.22561 9.69002 1.87487C9.50778 1.6466 9.25816 1.48166 8.9767 1.40355C8.69525 1.32545 8.39633 1.33816 8.12252 1.43987C7.01227 1.8476 5.97421 2.42993 5.04752 3.16487C4.81392 3.34979 4.64567 3.60464 4.56739 3.89211C4.48912 4.17957 4.50493 4.48454 4.61252 4.76237C4.78558 5.18544 4.85709 5.64318 4.8213 6.09887C4.7855 6.55456 4.64341 6.99552 4.40642 7.38638C4.16942 7.77724 3.84412 8.10712 3.45661 8.34955C3.0691 8.59198 2.63017 8.74022 2.17502 8.78237C1.87952 8.81396 1.60198 8.9396 1.38325 9.14077C1.16452 9.34195 1.01616 9.60804 0.960016 9.89987C0.820364 10.5911 0.750016 11.2946 0.750016 11.9999C0.74899 12.5903 0.796651 13.1798 0.892516 13.7624C0.940227 14.0635 1.08583 14.3406 1.3068 14.5507C1.52778 14.7609 1.81182 14.8924 2.11502 14.9249C2.58016 14.9685 3.02808 15.123 3.42129 15.3752C3.8145 15.6275 4.14156 15.9704 4.37509 16.375C4.60862 16.7796 4.74182 17.2343 4.76356 17.701C4.78529 18.1677 4.69493 18.6328 4.50002 19.0574C4.37246 19.3335 4.34082 19.6444 4.41012 19.9406C4.47942 20.2369 4.64568 20.5014 4.88252 20.6924C5.8576 21.5012 6.96345 22.1378 8.15252 22.5749C8.30457 22.6275 8.46411 22.6554 8.62502 22.6574C8.84564 22.6569 9.06294 22.6035 9.25869 22.5017C9.45443 22.3999 9.62292 22.2527 9.75002 22.0724C10.0173 21.6829 10.3757 21.3646 10.7939 21.145C11.2121 20.9254 11.6776 20.8112 12.15 20.8124C12.6077 20.8129 13.0589 20.9204 13.4678 21.1261C13.8766 21.3318 14.2318 21.6302 14.505 21.9974C14.6867 22.2417 14.9442 22.419 15.2372 22.5017C15.5302 22.5845 15.8423 22.568 16.125 22.4549C17.2123 22.0173 18.2245 21.4125 19.125 20.6624C19.3512 20.4753 19.5123 20.2214 19.5851 19.937C19.6578 19.6527 19.6386 19.3526 19.53 19.0799C19.3536 18.6623 19.2767 18.2094 19.3053 17.7569C19.334 17.3045 19.4674 16.8649 19.6951 16.4729C19.9227 16.0808 20.2384 15.7471 20.6171 15.4979C20.9959 15.2488 21.4274 15.0911 21.8775 15.0374C22.1694 14.997 22.4409 14.8648 22.6526 14.6598C22.8643 14.4548 23.0052 14.1878 23.055 13.8974C23.1755 13.2718 23.2407 12.6369 23.25 11.9999C23.2502 11.328 23.1874 10.6576 23.0625 9.99737C23.0119 9.71334 22.873 9.4525 22.6657 9.25189C22.4583 9.05128 22.1931 8.92111 21.9075 8.87987ZM15.75 11.9999C15.75 12.7415 15.5301 13.4666 15.118 14.0833C14.706 14.6999 14.1203 15.1806 13.4351 15.4644C12.7499 15.7482 11.9959 15.8225 11.2684 15.6778C10.541 15.5331 9.87281 15.176 9.34837 14.6515C8.82392 14.1271 8.46677 13.4589 8.32207 12.7315C8.17738 12.004 8.25164 11.25 8.53547 10.5648C8.8193 9.87958 9.29994 9.29391 9.91663 8.88186C10.5333 8.4698 11.2583 8.24987 12 8.24987C12.9946 8.24987 13.9484 8.64496 14.6517 9.34822C15.3549 10.0515 15.75 11.0053 15.75 11.9999Z" fill="#9DB2CE"/>
</g>
<defs>
<clipPath id="clip0_1_969">
<rect width="24" height="24" fill="white"/>
</clipPath>
</defs>
</svg>
