<svg width="24" height="24" viewBox="0 0 24 24" fill="none" xmlns="http://www.w3.org/2000/svg">
<path d="M22.245 9.95883C22.1789 6.51352 21.6989 3.97242 21.7055 3.97008C21.5058 3.58055 21.1556 3.25477 20.7272 3.08836C17.9147 1.99758 15.1491 0.956484 12.4528 0.0682031C12.1772 -0.0227344 11.8866 -0.0227344 11.6114 0.0682031C8.91561 0.954141 6.15046 1.99336 3.33843 3.08273C2.96014 3.22945 2.6428 3.50086 2.43608 3.83086C2.45202 3.83273 1.85811 5.68664 1.75686 9.78117C1.69686 13.8762 2.20686 15.1029 2.18999 15.1043C2.46608 16.0043 2.98264 16.9198 3.7228 17.8507C4.55014 18.8904 5.66811 19.9643 7.01858 21.0199C9.25405 22.7745 11.3461 23.823 11.4337 23.8601C11.6236 23.9529 11.8247 24.0002 12.0319 23.9998C12.2395 23.9998 12.4406 23.9524 12.63 23.8591C12.7181 23.8221 14.8125 22.7702 17.047 21.0162C18.398 19.9596 19.5159 18.8857 20.3437 17.8465C21.1369 16.8495 21.6731 15.8712 21.9323 14.9102C21.922 14.9088 22.297 13.4051 22.245 9.9593V9.95883ZM13.1447 12.6462V14.8291C13.1447 15.4441 12.6464 15.9424 12.0314 15.9429C11.4164 15.9429 10.9176 15.4446 10.9176 14.8296V12.6771C10.1151 12.2782 9.56296 11.4504 9.56296 10.4937C9.56296 9.14742 10.6542 8.0557 12.0005 8.0557C13.3467 8.0557 14.438 9.14695 14.4384 10.4932C14.4384 11.426 13.9144 12.2365 13.1447 12.6462Z" fill="#9DB2CE"/>
</svg>
