<svg width="32" height="32" viewBox="0 0 32 32" fill="none" xmlns="http://www.w3.org/2000/svg">
<path d="M28.0869 0H24.0982C23.5804 0 23.1607 0.41975 23.1607 0.9375C23.1607 1.45525 23.5804 1.875 24.0982 1.875H28.0869C29.2107 1.875 30.125 2.78925 30.125 3.91306V7.90181C30.125 8.41956 30.5448 8.83931 31.0625 8.83931C31.5802 8.83931 32 8.41956 32 7.90181V3.91306C32 1.75538 30.2446 0 28.0869 0ZM0.9375 8.83931C1.45525 8.83931 1.875 8.41956 1.875 7.90181V3.91306C1.875 2.78925 2.78925 1.875 3.91306 1.875H7.90181C8.41956 1.875 8.83931 1.45525 8.83931 0.9375C8.83931 0.41975 8.41956 0 7.90181 0H3.91306C1.75538 0 0 1.75538 0 3.91306V7.90181C0 8.41956 0.41975 8.83931 0.9375 8.83931ZM7.90181 30.125H3.91306C2.78925 30.125 1.875 29.2107 1.875 28.0869V24.0982C1.875 23.5804 1.45525 23.1607 0.9375 23.1607C0.41975 23.1607 0 23.5804 0 24.0982V28.0869C0 30.2446 1.75538 32 3.91306 32H7.90181C8.41956 32 8.83931 31.5802 8.83931 31.0625C8.83931 30.5448 8.41956 30.125 7.90181 30.125ZM31.0625 23.1607C30.5448 23.1607 30.125 23.5804 30.125 24.0982V28.0869C30.125 29.2107 29.2107 30.125 28.0869 30.125H24.0982C23.5804 30.125 23.1607 30.5448 23.1607 31.0625C23.1607 31.5802 23.5804 32 24.0982 32H28.0869C30.2446 32 32 30.2446 32 28.0869V24.0982C32 23.5804 31.5802 23.1607 31.0625 23.1607Z" fill="#009688"/>
<path d="M15.9998 11.2887C16.5542 11.2887 17.0036 10.8394 17.0036 10.285C17.0036 9.73064 16.5542 9.28125 15.9998 9.28125C15.4455 9.28125 14.9961 9.73064 14.9961 10.285C14.9961 10.8394 15.4455 11.2887 15.9998 11.2887Z" fill="#009688"/>
<path d="M23.5433 20.2019L20.2833 16.9419L15.7939 21.4313C15.4277 21.7975 14.8339 21.7975 14.4683 21.4313L12.1983 19.1613L8.56516 22.795C8.38915 22.9707 8.15068 23.0693 7.90203 23.0694H4.09766V26.965C4.09766 27.4825 4.51766 27.9025 5.03516 27.9025H26.9652C27.4827 27.9025 27.9027 27.4825 27.9027 26.965V20.4763H24.2064C23.9577 20.4763 23.7189 20.3775 23.5433 20.2019Z" fill="#009688"/>
<path d="M27.9027 5.03491C27.9027 4.51741 27.4827 4.09741 26.9652 4.09741H5.03516C4.51766 4.09741 4.09766 4.51741 4.09766 5.03491V21.1943H7.51391L11.5352 17.173C11.9014 16.8068 12.4952 16.8068 12.8608 17.173L15.1308 19.4424L19.6208 14.953C19.987 14.5868 20.5802 14.5868 20.9464 14.953L24.5945 18.6012H27.9027V5.03491ZM16.0002 13.1637C14.4127 13.1637 13.1214 11.8724 13.1214 10.2849C13.1214 8.69804 14.4127 7.40616 16.0002 7.40616C17.5877 7.40616 18.8789 8.69804 18.8789 10.2849C18.8789 11.8724 17.5877 13.1637 16.0002 13.1637Z" fill="#009688"/>
</svg>
